<svg width="60" height="60" viewBox="0 0 60 60" fill="none" xmlns="http://www.w3.org/2000/svg">
<path d="M45.5625 9.375H14.3125C10.8607 9.375 8.0625 12.1732 8.0625 15.625V39.375C8.0625 42.8268 10.8607 45.625 14.3125 45.625H45.5625C49.0143 45.625 51.8125 42.8268 51.8125 39.375V15.625C51.8125 12.1732 49.0143 9.375 45.5625 9.375Z" fill="#CC7C33"/>
<path d="M45.5625 11.875H14.3125C10.8607 11.875 8.0625 14.6732 8.0625 18.125V44.375C8.0625 47.8268 10.8607 50.625 14.3125 50.625H45.5625C49.0143 50.625 51.8125 47.8268 51.8125 44.375V18.125C51.8125 14.6732 49.0143 11.875 45.5625 11.875Z" fill="#FFE996"/>
<path d="M45.5625 14.375H14.3125C10.8607 14.375 8.0625 17.1732 8.0625 20.625V44.375C8.0625 47.8268 10.8607 50.625 14.3125 50.625H45.5625C49.0143 50.625 51.8125 47.8268 51.8125 44.375V20.625C51.8125 17.1732 49.0143 14.375 45.5625 14.375Z" fill="url(#paint0_linear_12_44)"/>
<path d="M40.9375 29.6625C39.6114 29.6625 38.3396 30.1893 37.402 31.1269C36.4643 32.0646 35.9375 33.3364 35.9375 34.6625C35.9375 35.9886 36.4643 37.2603 37.402 38.198C38.3396 39.1357 39.6114 39.6625 40.9375 39.6625H51.8125V29.6625H40.9375Z" fill="url(#paint1_linear_12_44)"/>
<path d="M40.9375 27.5H52.5C52.8083 27.5 53.104 27.6225 53.322 27.8405C53.54 28.0585 53.6625 28.3542 53.6625 28.6625V36.3375C53.6625 36.6458 53.54 36.9415 53.322 37.1595C53.104 37.3775 52.8083 37.5 52.5 37.5H40.9375C39.6114 37.5 38.3396 36.9732 37.402 36.0355C36.4643 35.0979 35.9375 33.8261 35.9375 32.5C35.9375 31.1739 36.4643 29.9021 37.402 28.9645C38.3396 28.0268 39.6114 27.5 40.9375 27.5Z" fill="url(#paint2_linear_12_44)"/>
<path d="M40.8375 34.6625C42.0318 34.6625 43 33.6943 43 32.5C43 31.3057 42.0318 30.3375 40.8375 30.3375C39.6432 30.3375 38.675 31.3057 38.675 32.5C38.675 33.6943 39.6432 34.6625 40.8375 34.6625Z" fill="#CC7C33"/>
<defs>
<linearGradient id="paint0_linear_12_44" x1="20.15" y1="-0.775" x2="34.4" y2="47.65" gradientUnits="userSpaceOnUse">
<stop offset="0.18" stop-color="#FFC308"/>
<stop offset="1" stop-color="#DE9908"/>
</linearGradient>
<linearGradient id="paint1_linear_12_44" x1="40.1875" y1="14.05" x2="44.4875" y2="35.45" gradientUnits="userSpaceOnUse">
<stop offset="0.18" stop-color="#E5AD00"/>
<stop offset="1" stop-color="#C68600"/>
</linearGradient>
<linearGradient id="paint2_linear_12_44" x1="43.3875" y1="24.925" x2="47.2125" y2="41.1625" gradientUnits="userSpaceOnUse">
<stop offset="0.18" stop-color="#FFC308"/>
<stop offset="1" stop-color="#DE9908"/>
</linearGradient>
</defs>
</svg>
