<svg width="60" height="60" viewBox="0 0 60 60" fill="none" xmlns="http://www.w3.org/2000/svg">
<path d="M35.625 37.6594V7.63594C35.625 4.57969 33.1968 1.875 30.1406 1.875H29.414C26.3625 1.875 23.9062 4.57969 23.9062 7.63594V37.6547C20.625 39.6234 18.6375 43.1297 18.6375 47.1234C18.6375 53.2828 23.625 58.2797 29.789 58.2797C35.9531 58.2797 40.9171 53.2875 40.9171 47.1234C40.9125 43.1297 38.9062 39.6281 35.625 37.6594Z" fill="#E1F5FE"/>
<path d="M32.775 40.2609V11.1656C32.775 9.51091 31.4344 8.17029 29.7797 8.17029C28.125 8.17029 26.7844 9.51091 26.7844 11.1656V40.2656C24.0563 41.4562 22.1766 44.2219 22.2938 47.414C22.4344 51.2531 25.5703 54.4265 29.4094 54.614C33.7172 54.8203 37.275 51.3937 37.275 47.1328C37.2703 44.0531 35.4234 41.4187 32.775 40.2609Z" fill="url(#paint0_linear_12_54)"/>
<path d="M29.4703 18.6375H23.8828V15.6422H29.4703C30.2484 15.6422 30.8766 16.2703 30.8766 17.0485V17.2313C30.8766 18.0094 30.2484 18.6375 29.4703 18.6375Z" fill="#616161"/>
<path d="M29.4703 27.3375H23.8828V24.3422H29.4703C30.2484 24.3422 30.8766 24.9703 30.8766 25.7484V25.9312C30.8766 26.7047 30.2484 27.3375 29.4703 27.3375Z" fill="#616161"/>
<path d="M29.4703 36.0375H23.8828V33.0422H29.4703C30.2484 33.0422 30.8766 33.6704 30.8766 34.4485V34.6313C30.8766 35.4047 30.2484 36.0375 29.4703 36.0375Z" fill="#616161"/>
<g opacity="0.2">
<path d="M30.0703 3.28125C32.2828 3.28125 34.2187 5.27813 34.2187 7.63594V37.6547C34.2187 38.1469 34.4765 38.6063 34.9031 38.8594C37.7859 40.5891 39.5062 43.6781 39.5062 47.1234C39.5062 52.5 35.1468 56.8734 29.7843 56.8734C24.4125 56.8734 20.039 52.5 20.039 47.1234C20.039 43.6734 21.7546 40.5844 24.6281 38.8594C25.05 38.6063 25.3125 38.1469 25.3125 37.6547V7.63594C25.3125 5.27813 27.1921 3.28125 29.4187 3.28125H30M30.1406 1.875H29.414C26.3625 1.875 23.9062 4.57969 23.9062 7.63594V37.6547C20.625 39.6234 18.6375 43.1297 18.6375 47.1234C18.6375 53.2828 23.625 58.2797 29.789 58.2797C35.9531 58.2797 40.9171 53.2875 40.9171 47.1234C40.9171 43.1297 38.9109 39.6234 35.6296 37.6547V7.63594C35.625 4.57969 33.1968 1.875 30.1406 1.875Z" fill="#424242"/>
</g>
<defs>
<linearGradient id="paint0_linear_12_54" x1="31.4128" y1="18.0881" x2="29.6647" y2="49.1808" gradientUnits="userSpaceOnUse">
<stop offset="0.5974" stop-color="#EEAD09"/>
<stop offset="1" stop-color="#E53935"/>
</linearGradient>
</defs>
</svg>
