<svg width="60" height="60" viewBox="0 0 60 60" fill="none" xmlns="http://www.w3.org/2000/svg">
<path d="M58.3162 29.997C58.3162 32.2123 58.0608 34.3693 57.5797 36.4426C54.9304 47.8368 45.3966 56.5933 33.5997 58.0903C32.4236 58.2388 31.2178 58.316 30 58.316C14.3658 58.316 1.68384 45.6387 1.68384 29.997C1.68384 14.3613 14.3658 1.68396 30 1.68396C45.6402 1.68396 58.3162 14.3613 58.3162 29.997Z" fill="#FFCD02"/>
<mask id="mask0_12_76" style="mask-type:luminance" maskUnits="userSpaceOnUse" x="19" y="20" width="39" height="39">
<path d="M19.1119 20.2837H57.5796V58.0903H19.1119V20.2837Z" fill="white"/>
</mask>
<g mask="url(#mask0_12_76)">
<g opacity="0.5">
<path d="M57.5796 36.4423C54.9303 47.837 45.3965 56.5929 33.5996 58.09L19.1118 41.8067L42.7948 20.2838L57.5796 36.4423Z" fill="#FFA800"/>
</g>
</g>
<path d="M46.0667 29.9994C46.0667 38.8735 38.8738 46.0676 30.0006 46.0676C21.1274 46.0676 13.934 38.8735 13.934 29.9994C13.934 21.1253 21.1274 13.9312 30.0006 13.9312C38.8738 13.9312 46.0667 21.1253 46.0667 29.9994Z" fill="#2E4303"/>
<path d="M42.4565 29.9994C42.4565 36.8792 36.8794 42.4563 30.0008 42.4563C23.1217 42.4563 17.5446 36.8792 17.5446 29.9994C17.5446 23.1201 23.1217 17.5425 30.0008 17.5425C36.8794 17.5425 42.4565 23.1201 42.4565 29.9994Z" fill="white"/>
<path d="M30.528 21.4769H29.473V19.0876H30.528V21.4769Z" fill="#2E4303"/>
<path d="M30.528 40.873H29.473V38.4831H30.528V40.873Z" fill="#2E4303"/>
<path d="M38.5026 29.4523H40.8916V30.5073H38.5026V29.4523Z" fill="#2E4303"/>
<path d="M19.1089 29.4523H21.498V30.5073H19.1089V29.4523Z" fill="#2E4303"/>
<path d="M36.3853 24.3407L35.6387 23.594L37.3286 21.9044L38.0747 22.6506L36.3853 24.3407Z" fill="#2E4303"/>
<path d="M22.6725 38.0569L21.9264 37.3101L23.6157 35.6206L24.3618 36.3668L22.6725 38.0569Z" fill="#2E4303"/>
<path d="M24.3614 23.5958L23.6148 24.3419L21.9254 22.6524L22.6715 21.9063L24.3614 23.5958Z" fill="#2E4303"/>
<path d="M38.0763 37.3097L37.3296 38.0564L35.6403 36.3663L36.3863 35.6201L38.0763 37.3097Z" fill="#2E4303"/>
<path d="M35.2574 34.7397L31.5158 31.044C31.7213 30.7476 31.8425 30.3876 31.8425 29.9997C31.8425 29.0907 31.1837 28.3404 30.3188 28.189V24.3406H29.6821V28.189C28.8172 28.3404 28.1584 29.0913 28.1584 29.9997C28.1584 31.0167 28.9829 31.8418 30.0005 31.8418C30.3978 31.8418 30.7638 31.7129 31.0643 31.4997L34.8184 35.2007L35.2574 34.7397Z" fill="#2B2B2B"/>
</svg>
