<svg width="59" height="59" viewBox="0 0 59 59" fill="none" xmlns="http://www.w3.org/2000/svg">
<path d="M50.5798 49.8537L44.8739 38.8834C44.8084 38.7572 44.7146 38.6479 44.5998 38.564C44.4849 38.4801 44.3523 38.424 44.2121 38.4C44.072 38.3759 43.9282 38.3847 43.792 38.4255C43.6558 38.4664 43.5309 38.5382 43.4271 38.6354C42.7288 39.2934 42.2069 40.1162 41.9092 41.0283C41.7034 41.6481 41.35 42.2086 40.8795 42.6614C40.4089 43.1143 39.8354 43.446 39.2082 43.628C38.5796 43.8332 37.9063 43.8597 37.2636 43.7045C36.3796 43.5195 35.4648 43.5428 34.5914 43.7727C33.7181 44.0025 32.9103 44.4326 32.232 45.0288C32.0758 45.1647 31.9699 45.3492 31.9314 45.5527C31.893 45.7561 31.9242 45.9665 32.0199 46.1501L37.4866 56.6595C37.5568 56.7948 37.6595 56.9106 37.7856 56.9965C37.9116 57.0823 38.057 57.1354 38.2087 57.151C38.241 57.1541 38.2725 57.156 38.3041 57.156C38.4404 57.156 38.5751 57.1257 38.6984 57.0675C38.8217 57.0092 38.9305 56.9243 39.0171 56.8189L43.2195 51.6941L49.832 51.198C49.9842 51.1867 50.1311 51.1378 50.2597 51.0556C50.3882 50.9735 50.4944 50.8607 50.5685 50.7274C50.6427 50.5941 50.6826 50.4444 50.6846 50.2919C50.6866 50.1393 50.6504 49.989 50.5798 49.8537Z" fill="#2E4303"/>
<path d="M37.2639 43.7048C36.38 43.5198 35.4651 43.5431 34.5918 43.773C33.7184 44.0028 32.9106 44.4329 32.2323 45.0291C32.0761 45.165 31.9703 45.3496 31.9318 45.553C31.8933 45.7564 31.9245 45.9669 32.0203 46.1504L37.487 56.6598C37.5572 56.7951 37.6599 56.911 37.7859 56.9968C37.912 57.0826 38.0574 57.1357 38.209 57.1513C38.2414 57.1545 38.2729 57.1563 38.3044 57.1563C38.4408 57.1563 38.5755 57.1261 38.6988 57.0678C38.8221 57.0095 38.9309 56.9246 39.0174 56.8192L43.2198 51.6945L39.0483 43.6701C38.466 43.8319 37.8521 43.8439 37.2639 43.7048Z" fill="#2E4303"/>
<path d="M8.42013 49.8537L14.126 38.8834C14.1915 38.7572 14.2853 38.6479 14.4001 38.564C14.5149 38.4801 14.6476 38.424 14.7878 38.4C14.9279 38.3759 15.0717 38.3847 15.2079 38.4255C15.3441 38.4664 15.469 38.5382 15.5728 38.6354C16.2711 39.2934 16.793 40.1162 17.0906 41.0283C17.2965 41.6481 17.6499 42.2086 18.1204 42.6614C18.591 43.1143 19.1645 43.446 19.7917 43.628C20.4203 43.8332 21.0936 43.8597 21.7363 43.7045C22.6203 43.5195 23.5351 43.5428 24.4085 43.7727C25.2818 44.0025 26.0896 44.4326 26.7679 45.0288C26.9241 45.1647 27.03 45.3492 27.0684 45.5527C27.1069 45.7561 27.0757 45.9665 26.98 46.1501L21.5132 56.6595C21.4431 56.7948 21.3404 56.9106 21.2143 56.9965C21.0883 57.0823 20.9429 57.1354 20.7912 57.151C20.7589 57.1541 20.7273 57.156 20.6958 57.156C20.5594 57.156 20.4248 57.1257 20.3015 57.0675C20.1782 57.0092 20.0694 56.9243 19.9828 56.8189L15.7804 51.6941L9.16786 51.198C9.01572 51.1867 8.86877 51.1378 8.74022 51.0556C8.61166 50.9735 8.50553 50.8607 8.43136 50.7274C8.35718 50.5941 8.31729 50.4444 8.31527 50.2919C8.31324 50.1393 8.34952 49.989 8.42013 49.8537Z" fill="#2E4303"/>
<path d="M21.736 43.7048C22.6199 43.5198 23.5348 43.5431 24.4082 43.773C25.2815 44.0028 26.0893 44.4329 26.7676 45.0291C26.9238 45.165 27.0297 45.3496 27.0681 45.553C27.1066 45.7564 27.0754 45.9669 26.9796 46.1504L21.5129 56.6598C21.4428 56.7951 21.3401 56.911 21.214 56.9968C21.088 57.0826 20.9426 57.1357 20.7909 57.1513C20.7586 57.1545 20.727 57.1563 20.6955 57.1563C20.5591 57.1563 20.4244 57.1261 20.3012 57.0678C20.1779 57.0095 20.0691 56.9246 19.9825 56.8192L15.7802 51.6945L19.9509 43.6702C20.5335 43.8321 21.1476 43.8441 21.736 43.7048Z" fill="#2E4303"/>
<path d="M52.5468 24.8906C52.5517 23.4501 52.0218 22.0591 51.0596 20.9871C50.4024 20.2496 50.0392 19.2963 50.0393 18.3085C50.0408 18.0305 50.0689 17.7533 50.1231 17.4806C50.204 17.0917 50.247 16.6959 50.2514 16.2988C50.2504 15.0637 49.8596 13.8605 49.1348 12.8606C48.4099 11.8606 47.388 11.1149 46.2146 10.7297C45.6168 10.5374 45.0733 10.2055 44.6293 9.76141C44.1852 9.31735 43.8533 8.77394 43.661 8.17612C43.4487 7.5256 43.1228 6.91783 42.6985 6.38096C42.1481 5.68558 41.4482 5.12302 40.6507 4.73495C39.8533 4.34689 38.9787 4.14329 38.0918 4.13923C37.6919 4.14379 37.2933 4.18701 36.9017 4.2683C36.2869 4.39365 35.6515 4.37456 35.0453 4.21254C34.4392 4.05052 33.8789 3.74999 33.4087 3.33462C32.3418 2.38232 30.964 1.85222 29.534 1.84385C28.104 1.83548 26.72 2.34942 25.6421 3.28917C25.6069 3.31287 25.5733 3.33874 25.5413 3.36661C25.0781 3.77945 24.5235 4.07636 23.9231 4.23287C23.3227 4.38937 22.6937 4.40101 22.0879 4.26682C21.6997 4.18643 21.3046 4.1437 20.9081 4.13923C20.0218 4.14325 19.1479 4.34662 18.3509 4.73428C17.5539 5.12193 16.8543 5.68393 16.3041 6.37865C15.8788 6.91609 15.5524 7.52475 15.3399 8.17631C15.1471 8.77482 14.8144 9.31878 14.3695 9.7631C13.9246 10.2074 13.3802 10.5393 12.7814 10.7313C11.6089 11.1169 10.5879 11.8626 9.8638 12.8623C9.13972 13.8619 8.74945 15.0645 8.74855 16.2988C8.75281 16.6949 8.79533 17.0897 8.8755 17.4777C8.93047 17.7512 8.95896 18.0294 8.96059 18.3085C8.96106 19.2939 8.59971 20.2452 7.94514 20.9819C6.9852 22.0563 6.4542 23.4463 6.45337 24.8871C6.45254 26.3278 6.98193 27.7185 7.94062 28.794C8.5978 29.5315 8.96083 30.485 8.96059 31.4728C8.95909 31.7508 8.93106 32.028 8.87688 32.3007C8.79594 32.6895 8.75296 33.0853 8.74855 33.4825C8.74963 34.7178 9.14063 35.9213 9.86582 36.9214C10.591 37.9215 11.6134 38.6671 12.7872 39.052C13.3621 39.2381 13.8851 39.5568 14.314 39.9825C14.7867 40.4301 15.1396 40.9891 15.3403 41.6084C15.6368 42.5064 16.1464 43.3193 16.8255 43.9776C17.5046 44.6358 18.333 45.1197 19.2399 45.3881C20.1608 45.6852 21.1447 45.7291 22.0885 45.515C22.3615 45.4602 22.6393 45.4317 22.9178 45.43C23.8886 45.4317 24.8261 45.7837 25.5582 46.4212C25.5726 46.4338 25.5871 46.4464 25.6024 46.4581L25.6086 46.4626C26.6843 47.415 28.0719 47.9398 29.5086 47.9377C30.9453 47.9355 32.3313 47.4065 33.4041 46.4509C34.1411 45.7933 35.0944 45.4299 36.0822 45.43C36.3608 45.4316 36.6386 45.46 36.9118 45.5146C37.3002 45.595 37.6953 45.6376 38.0918 45.642C39.3267 45.6408 40.5297 45.25 41.5295 44.5252C42.5293 43.8003 43.2748 42.7785 43.66 41.6052C43.8528 41.0067 44.1854 40.4628 44.6303 40.0185C45.0753 39.5741 45.6197 39.2422 46.2184 39.0503C47.391 38.6646 48.4121 37.9189 49.1362 36.9192C49.8603 35.9195 50.2505 34.7169 50.2514 33.4825C50.2471 33.0864 50.2046 32.6916 50.1244 32.3036C50.0695 32.0301 50.041 31.7518 50.0393 31.4728C50.0392 30.4855 50.4019 29.5325 51.0584 28.7951C52.0207 27.7227 52.5511 26.3315 52.5468 24.8906Z" fill="#FFE769"/>
<path d="M40.2195 21.7789C40.1243 21.4866 39.9528 21.2249 39.7226 21.0211C39.4925 20.8172 39.2121 20.6786 38.9104 20.6194L33.624 19.5854L31.007 14.8775C30.8577 14.6086 30.6392 14.3845 30.3742 14.2285C30.1092 14.0725 29.8072 13.9902 29.4997 13.9902C29.1922 13.9902 28.8902 14.0725 28.6252 14.2285C28.3602 14.3845 28.1417 14.6086 27.9924 14.8775L25.3754 19.5854L20.0895 20.6194C19.7878 20.6785 19.5074 20.8172 19.2773 21.0211C19.0472 21.2249 18.8758 21.4866 18.7807 21.779C18.6857 22.0713 18.6706 22.3838 18.7369 22.684C18.8031 22.9842 18.9484 23.2612 19.1577 23.4864L22.8263 27.4295L22.1763 32.7776C22.1395 33.0828 22.1848 33.3924 22.3078 33.6742C22.4307 33.956 22.6267 34.1998 22.8755 34.3804C23.1242 34.5611 23.4168 34.6719 23.7228 34.7015C24.0288 34.7312 24.3372 34.6785 24.616 34.5489L29.5 32.2788L34.3848 34.5493C34.6636 34.6788 34.972 34.7314 35.2779 34.7017C35.5839 34.672 35.8764 34.5611 36.1251 34.3804C36.3738 34.1997 36.5697 33.9558 36.6925 33.674C36.8153 33.3922 36.8606 33.0827 36.8236 32.7775L36.1737 27.4299L39.8428 23.4863C40.0519 23.2611 40.1972 22.984 40.2634 22.6839C40.3296 22.3837 40.3144 22.0713 40.2195 21.7789Z" fill="#F38621"/>
<path d="M29.4999 40.9965C26.2287 40.9964 23.031 40.0264 20.3111 38.209C17.5912 36.3916 15.4714 33.8084 14.2195 30.7862C12.9677 27.764 12.6402 24.4385 13.2784 21.2302C13.9166 18.0218 15.4918 15.0748 17.8049 12.7617C20.118 10.4486 23.065 8.87337 26.2734 8.23518C29.4817 7.59699 32.8072 7.92451 35.8294 9.17633C38.8516 10.4281 41.4348 12.548 43.2522 15.2679C45.0696 17.9878 46.0396 21.1855 46.0397 24.4567C46.0347 28.8418 44.2905 33.0459 41.1898 36.1466C38.0891 39.2473 33.885 40.9915 29.4999 40.9965ZM29.4999 9.76121C26.5934 9.76124 23.7521 10.6232 21.3354 12.238C18.9187 13.8528 17.0352 16.148 15.9229 18.8334C14.8106 21.5187 14.5197 24.4735 15.0867 27.3242C15.6538 30.1749 17.0535 32.7934 19.1088 34.8487C21.1641 36.9039 23.7826 38.3035 26.6334 38.8705C29.4841 39.4375 32.4389 39.1464 35.1242 38.034C37.8095 36.9217 40.1046 35.0381 41.7194 32.6213C43.3341 30.2046 44.196 27.3633 44.1959 24.4567C44.1914 20.5605 42.6417 16.8252 39.8866 14.0702C37.1315 11.3152 33.3961 9.76555 29.4999 9.76121Z" fill="#F38621"/>
</svg>
