<svg width="20" height="20" viewBox="0 0 20 20" fill="none" xmlns="http://www.w3.org/2000/svg">
<circle cx="10" cy="10" r="10" fill="#27D045"/>
<path d="M13.1976 11.3949C13.0247 11.306 12.163 10.8839 12.0027 10.8268C11.8424 10.7665 11.725 10.7379 11.6091 10.9156C11.4917 11.0918 11.1584 11.4838 11.0537 11.6028C10.9521 11.7202 10.849 11.7345 10.676 11.6472C9.6477 11.1331 8.97327 10.73 8.29565 9.56677C8.11633 9.25732 8.47498 9.27954 8.80981 8.61145C8.86694 8.49402 8.83838 8.39404 8.79394 8.30518C8.74951 8.21631 8.40039 7.3562 8.25439 7.00549C8.11316 6.66431 7.96716 6.71191 7.86084 6.70557C7.75928 6.69922 7.64343 6.69922 7.526 6.69922C7.40857 6.69922 7.21973 6.74365 7.05945 6.91663C6.89917 7.09277 6.4469 7.51648 6.4469 8.37659C6.4469 9.23669 7.07373 10.0698 7.15942 10.1873C7.24829 10.3047 8.39246 12.0693 10.1492 12.8295C11.26 13.3087 11.6948 13.35 12.2502 13.2675C12.5883 13.2167 13.2849 12.8453 13.4293 12.4343C13.5737 12.0249 13.5737 11.6742 13.5309 11.6012C13.488 11.5234 13.3706 11.479 13.1976 11.3949Z" fill="white"/>
<path d="M16.5571 7.24512C16.1985 6.39294 15.6843 5.62805 15.0289 4.97107C14.3735 4.31567 13.6086 3.79993 12.7549 3.44287C11.882 3.07629 10.9553 2.89062 9.99997 2.89062H9.96823C9.00656 2.89539 8.07504 3.08582 7.19906 3.46033C6.35324 3.82214 5.59469 4.3363 4.94565 4.9917C4.2966 5.64709 3.7872 6.40881 3.4349 7.25781C3.06991 8.13696 2.88583 9.07165 2.89059 10.0333C2.89535 11.1346 3.15878 12.228 3.65231 13.2056V15.6177C3.65231 16.0208 3.97922 16.3477 4.38229 16.3477H6.79599C7.77353 16.8412 8.86691 17.1046 9.96823 17.1094H10.0016C10.9521 17.1094 11.8741 16.9253 12.7422 16.5651C13.5912 16.2112 14.3545 15.7034 15.0083 15.0543C15.6637 14.4053 16.1794 13.6467 16.5396 12.8009C16.9142 11.9249 17.1046 10.9934 17.1093 10.0317C17.1141 9.06531 16.9268 8.12744 16.5571 7.24512ZM14.1593 14.1958C13.0468 15.2971 11.571 15.9033 9.99997 15.9033H9.97299C9.01608 15.8986 8.06552 15.6605 7.22604 15.213L7.09274 15.1416H4.85837V12.9072L4.78696 12.7739C4.33945 11.9344 4.10141 10.9839 4.09665 10.027C4.0903 8.44482 4.69491 6.95947 5.80417 5.8407C6.91183 4.72192 8.39242 4.10303 9.97458 4.09668H10.0016C10.795 4.09668 11.5647 4.25061 12.2899 4.5553C12.9976 4.85205 13.6324 5.27893 14.1783 5.82483C14.7226 6.36914 15.1511 7.00549 15.4478 7.71326C15.7557 8.44641 15.9096 9.224 15.9065 10.027C15.8969 11.6075 15.2765 13.0881 14.1593 14.1958Z" fill="white"/>
</svg>
